<?xml version="1.0" standalone="no"?>
<!DOCTYPE svg PUBLIC "-//W3C//DTD SVG 1.1//EN" "http://www.w3.org/Graphics/SVG/1.1/DTD/svg11.dtd" >
<svg xmlns="http://www.w3.org/2000/svg" xmlns:xlink="http://www.w3.org/1999/xlink" version="1.1" viewBox="-10 0 610 1000">
   <path fill="currentColor"
d="M86 767v-4h83v3q0 24 10 46.5t29 38t43 21t48 5.5q25 0 50 -7t43.5 -24.5t28 -41.5t9.5 -50q0 -25 -12.5 -47.5t-33.5 -36.5t-46 -19.5t-50 -9.5t-49.5 -9t-47.5 -15t-42.5 -26.5t-33.5 -37.5t-21 -45.5t-7 -49.5q0 -22 5 -43t13 -41t21 -37.5t29 -31.5q-16 -12 -29 -27
t-21.5 -33t-12.5 -37.5t-4 -39.5q0 -27 7 -54t20.5 -51t34 -43t45 -30.5t52 -16t54.5 -4.5t53 4t50.5 14t45.5 26.5t35.5 39t21.5 48t7 52.5v4h-83v-3q0 -24 -10 -46.5t-29 -38t-43 -21t-48 -5.5q-25 0 -50 7t-43.5 24.5t-28 41.5t-9.5 50q0 25 12.5 47.5t33.5 36.5t46 19.5
t50 9.5t49.5 9t47.5 15t42.5 26.5t33.5 37.5t21 45.5t7 49.5q0 22 -5 43t-13 41t-21 37.5t-29 31.5q16 12 29 27t21.5 33t12.5 37.5t4 39.5q0 27 -7 54t-20.5 51t-34 43t-45 30.5t-52 16t-54.5 4.5t-53 -4t-50.5 -14t-45.5 -26.5t-35.5 -39t-21.5 -48t-7 -52.5zM170 455
q0 20 8.5 39.5t23.5 33.5t34 22t39 13t40.5 8t40.5 7q17 -7 31 -18t23.5 -26.5t14.5 -33t5 -35.5q0 -20 -8.5 -39.5t-23.5 -33.5t-34 -22t-39 -13t-40.5 -8t-40.5 -7q-17 7 -31 18t-23.5 26.5t-14.5 33t-5 35.5z" />
</svg>
