<?xml version="1.0" standalone="no"?>
<!DOCTYPE svg PUBLIC "-//W3C//DTD SVG 1.1//EN" "http://www.w3.org/Graphics/SVG/1.1/DTD/svg11.dtd" >
<svg xmlns="http://www.w3.org/2000/svg" xmlns:xlink="http://www.w3.org/1999/xlink" version="1.1" viewBox="-10 0 610 1000">
   <path fill="currentColor"
d="M303 808q-26 0 -51.5 -3.5t-49.5 -12.5t-45 -24t-36 -35.5t-23.5 -45t-10.5 -50.5h83q3 23 15 43t31 32.5t41.5 17t45.5 4.5q28 0 55.5 -10.5t46 -32.5t25.5 -50.5t7 -56.5q0 -20 -3 -39.5t-12 -37.5t-23 -32t-32 -22.5t-37.5 -12t-39.5 -3.5h-181v-372h382v73h-299v226
h98q31 0 61 4.5t57.5 17t50 33.5t36.5 47.5t19.5 56.5t5.5 61q0 29 -5 58.5t-18 56t-33.5 48.5t-46.5 36t-55.5 19.5t-58.5 5.5z" />
</svg>
