<?xml version="1.0" standalone="no"?>
<!DOCTYPE svg PUBLIC "-//W3C//DTD SVG 1.1//EN" "http://www.w3.org/Graphics/SVG/1.1/DTD/svg11.dtd" >
<svg xmlns="http://www.w3.org/2000/svg" xmlns:xlink="http://www.w3.org/1999/xlink" version="1.1" viewBox="-10 0 610 1000">
   <path fill="currentColor"
d="M297 808q-29 0 -57.5 -5t-54.5 -17.5t-47 -33t-34.5 -46t-18.5 -54t-5 -57.5v-56h-54v-66h54v-81h-54v-66h54v-56q0 -29 5 -57.5t18.5 -54t34.5 -46t47 -33t54.5 -17.5t57.5 -5q27 0 53.5 3.5t51.5 13.5t46.5 26.5t36 39t22 48.5t7.5 53v4h-83v-3q0 -24 -10.5 -47
t-30 -38t-44 -20.5t-49.5 -5.5q-18 0 -36.5 3t-34.5 12t-29 22.5t-20.5 30t-10.5 34.5t-3 37v56h131v66h-131v81h131v66h-131v56q0 19 3 37t10.5 34.5t20.5 30t29 22.5t34.5 12t36.5 3q25 0 49.5 -5.5t44 -20.5t30 -38t10.5 -47v-3h83v4q0 27 -7.5 53t-22 48.5t-36 39
t-46.5 26.5t-51.5 13.5t-53.5 3.5z" />
</svg>
